<mxfile host="65bd71144e">
    <diagram id="-GO-oGS-a2X57LUgcvKu" name="第 1 页">
        <mxGraphModel dx="1080" dy="721" grid="1" gridSize="10" guides="1" tooltips="1" connect="1" arrows="1" fold="1" page="1" pageScale="1" pageWidth="827" pageHeight="1169" math="0" shadow="0">
            <root>
                <mxCell id="0"/>
                <mxCell id="1" parent="0"/>
                <mxCell id="2" value="" style="rounded=1;whiteSpace=wrap;html=1;strokeWidth=2;" parent="1" vertex="1">
                    <mxGeometry x="110" y="300" width="440" height="200" as="geometry"/>
                </mxCell>
                <mxCell id="3" value="" style="endArrow=none;dashed=1;html=1;strokeWidth=2;rounded=1;" parent="1" edge="1">
                    <mxGeometry width="50" height="50" relative="1" as="geometry">
                        <mxPoint x="250" y="484" as="sourcePoint"/>
                        <mxPoint x="250" y="150" as="targetPoint"/>
                    </mxGeometry>
                </mxCell>
                <mxCell id="4" value="" style="endArrow=none;dashed=1;html=1;strokeWidth=2;rounded=1;" parent="1" edge="1">
                    <mxGeometry width="50" height="50" relative="1" as="geometry">
                        <mxPoint x="400" y="486" as="sourcePoint"/>
                        <mxPoint x="400" y="150" as="targetPoint"/>
                    </mxGeometry>
                </mxCell>
                <mxCell id="15" value="" style="shape=table;html=1;whiteSpace=wrap;startSize=0;container=1;collapsible=0;childLayout=tableLayout;fontFamily=Times New Roman;fontSize=48;strokeWidth=2;fillColor=#FFFFFF;" parent="1" vertex="1">
                    <mxGeometry x="339" y="314" width="115" height="40" as="geometry"/>
                </mxCell>
                <mxCell id="16" value="" style="shape=tableRow;horizontal=0;startSize=0;swimlaneHead=0;swimlaneBody=0;top=0;left=0;bottom=0;right=0;collapsible=0;dropTarget=0;fillColor=none;points=[[0,0.5],[1,0.5]];portConstraint=eastwest;fontFamily=Times New Roman;fontSize=48;" parent="15" vertex="1">
                    <mxGeometry width="115" height="40" as="geometry"/>
                </mxCell>
                <mxCell id="17" value="" style="shape=partialRectangle;html=1;whiteSpace=wrap;connectable=0;fillColor=none;top=0;left=0;bottom=0;right=0;overflow=hidden;fontFamily=Times New Roman;fontSize=48;" parent="16" vertex="1">
                    <mxGeometry width="23" height="40" as="geometry">
                        <mxRectangle width="23" height="40" as="alternateBounds"/>
                    </mxGeometry>
                </mxCell>
                <mxCell id="18" style="shape=partialRectangle;html=1;whiteSpace=wrap;connectable=0;fillColor=none;top=0;left=0;bottom=0;right=0;overflow=hidden;fontFamily=Times New Roman;fontSize=48;" parent="16" vertex="1">
                    <mxGeometry x="23" width="23" height="40" as="geometry">
                        <mxRectangle width="23" height="40" as="alternateBounds"/>
                    </mxGeometry>
                </mxCell>
                <mxCell id="19" style="shape=partialRectangle;html=1;whiteSpace=wrap;connectable=0;fillColor=none;top=0;left=0;bottom=0;right=0;overflow=hidden;fontFamily=Times New Roman;fontSize=48;" parent="16" vertex="1">
                    <mxGeometry x="46" width="23" height="40" as="geometry">
                        <mxRectangle width="23" height="40" as="alternateBounds"/>
                    </mxGeometry>
                </mxCell>
                <mxCell id="20" style="shape=partialRectangle;html=1;whiteSpace=wrap;connectable=0;fillColor=none;top=0;left=0;bottom=0;right=0;overflow=hidden;fontFamily=Times New Roman;fontSize=48;" parent="16" vertex="1">
                    <mxGeometry x="69" width="23" height="40" as="geometry">
                        <mxRectangle width="23" height="40" as="alternateBounds"/>
                    </mxGeometry>
                </mxCell>
                <mxCell id="21" style="shape=partialRectangle;html=1;whiteSpace=wrap;connectable=0;fillColor=none;top=0;left=0;bottom=0;right=0;overflow=hidden;fontFamily=Times New Roman;fontSize=48;" parent="16" vertex="1">
                    <mxGeometry x="92" width="23" height="40" as="geometry">
                        <mxRectangle width="23" height="40" as="alternateBounds"/>
                    </mxGeometry>
                </mxCell>
                <mxCell id="33" value="" style="group" parent="1" vertex="1" connectable="0">
                    <mxGeometry x="150" y="400" width="60" height="80" as="geometry"/>
                </mxCell>
                <mxCell id="34" value="" style="shape=partialRectangle;whiteSpace=wrap;html=1;bottom=0;top=0;fillColor=default;strokeWidth=2;" parent="33" vertex="1">
                    <mxGeometry width="40" height="60" as="geometry"/>
                </mxCell>
                <mxCell id="35" value="" style="shape=partialRectangle;whiteSpace=wrap;html=1;bottom=0;top=0;fillColor=default;strokeWidth=2;" parent="33" vertex="1">
                    <mxGeometry x="10" y="10" width="40" height="60" as="geometry"/>
                </mxCell>
                <mxCell id="36" value="" style="shape=partialRectangle;whiteSpace=wrap;html=1;bottom=0;top=0;fillColor=default;strokeWidth=2;" parent="33" vertex="1">
                    <mxGeometry x="20" y="20" width="40" height="60" as="geometry"/>
                </mxCell>
                <mxCell id="45" value="" style="endArrow=classic;html=1;strokeWidth=2;entryX=0.499;entryY=1.017;entryDx=0;entryDy=0;entryPerimeter=0;" parent="33" target="49" edge="1">
                    <mxGeometry width="50" height="50" relative="1" as="geometry">
                        <mxPoint x="30" as="sourcePoint"/>
                        <mxPoint x="29.988999999999947" y="-29.326000000000022" as="targetPoint"/>
                    </mxGeometry>
                </mxCell>
                <mxCell id="46" value="" style="endArrow=classic;html=1;strokeWidth=2;exitX=0.417;exitY=1.008;exitDx=0;exitDy=0;exitPerimeter=0;" parent="33" source="49" edge="1">
                    <mxGeometry width="50" height="50" relative="1" as="geometry">
                        <mxPoint x="19.99899999999994" y="-29.428999999999974" as="sourcePoint"/>
                        <mxPoint x="20" as="targetPoint"/>
                    </mxGeometry>
                </mxCell>
                <mxCell id="55" value="" style="endArrow=classic;html=1;strokeColor=#000000;entryX=0.599;entryY=-0.018;entryDx=0;entryDy=0;entryPerimeter=0;" parent="1" source="66" target="15" edge="1">
                    <mxGeometry width="50" height="50" relative="1" as="geometry">
                        <mxPoint x="420.15100000000007" y="286.9920000000001" as="sourcePoint"/>
                        <mxPoint x="420.00400000000013" y="433.01" as="targetPoint"/>
                    </mxGeometry>
                </mxCell>
                <mxCell id="57" value="" style="endArrow=classic;html=1;strokeWidth=2;exitX=-0.003;exitY=0.476;exitDx=0;exitDy=0;exitPerimeter=0;entryX=0.99;entryY=0.386;entryDx=0;entryDy=0;entryPerimeter=0;" parent="1" source="16" target="50" edge="1">
                    <mxGeometry width="50" height="50" relative="1" as="geometry">
                        <mxPoint x="260" y="471" as="sourcePoint"/>
                        <mxPoint x="250.5" y="441" as="targetPoint"/>
                    </mxGeometry>
                </mxCell>
                <mxCell id="58" value="&lt;font face=&quot;Times New Roman&quot; style=&quot;font-size: 24px;&quot;&gt;ATS-INTC&lt;/font&gt;" style="text;html=1;align=center;verticalAlign=middle;resizable=0;points=[];autosize=1;strokeColor=none;fillColor=none;" parent="1" vertex="1">
                    <mxGeometry x="110" y="260" width="130" height="40" as="geometry"/>
                </mxCell>
                <mxCell id="59" value="" style="group" parent="1" vertex="1" connectable="0">
                    <mxGeometry x="120" y="510" width="130" height="130" as="geometry"/>
                </mxCell>
                <mxCell id="60" value="" style="sketch=0;pointerEvents=1;shadow=0;dashed=0;html=1;strokeColor=none;fillColor=#434445;aspect=fixed;labelPosition=center;verticalLabelPosition=bottom;verticalAlign=top;align=center;outlineConnect=0;shape=mxgraph.vvd.cpu;" parent="59" vertex="1">
                    <mxGeometry width="130" height="130" as="geometry"/>
                </mxCell>
                <mxCell id="61" value="&lt;font face=&quot;Times New Roman&quot; style=&quot;font-size: 24px;&quot;&gt;Kernel&lt;/font&gt;" style="text;html=1;align=center;verticalAlign=middle;resizable=0;points=[];autosize=1;strokeColor=none;fillColor=none;" parent="59" vertex="1">
                    <mxGeometry x="20" y="45" width="90" height="40" as="geometry"/>
                </mxCell>
                <mxCell id="62" value="" style="group" parent="1" vertex="1" connectable="0">
                    <mxGeometry x="260" y="150" width="130" height="130" as="geometry"/>
                </mxCell>
                <mxCell id="63" value="" style="sketch=0;pointerEvents=1;shadow=0;dashed=0;html=1;strokeColor=none;fillColor=#434445;aspect=fixed;labelPosition=center;verticalLabelPosition=bottom;verticalAlign=top;align=center;outlineConnect=0;shape=mxgraph.vvd.cpu;" parent="62" vertex="1">
                    <mxGeometry width="130" height="130" as="geometry"/>
                </mxCell>
                <mxCell id="96" value="&lt;span style=&quot;color: rgb(0, 0, 0); font-family: &amp;quot;Times New Roman&amp;quot;; font-size: 24px; font-style: normal; font-variant-ligatures: normal; font-variant-caps: normal; font-weight: 400; letter-spacing: normal; orphans: 2; text-align: center; text-indent: 0px; text-transform: none; widows: 2; word-spacing: 0px; -webkit-text-stroke-width: 0px; background-color: rgb(251, 251, 251); text-decoration-thickness: initial; text-decoration-style: initial; text-decoration-color: initial; float: none; display: inline !important;&quot;&gt;Process1&lt;/span&gt;" style="text;whiteSpace=wrap;html=1;" parent="62" vertex="1">
                    <mxGeometry x="20" y="40" width="90" height="50" as="geometry"/>
                </mxCell>
                <mxCell id="65" value="" style="group" parent="1" vertex="1" connectable="0">
                    <mxGeometry x="414" y="150" width="130" height="130" as="geometry"/>
                </mxCell>
                <mxCell id="66" value="" style="sketch=0;pointerEvents=1;shadow=0;dashed=0;html=1;strokeColor=none;fillColor=#434445;aspect=fixed;labelPosition=center;verticalLabelPosition=bottom;verticalAlign=top;align=center;outlineConnect=0;shape=mxgraph.vvd.cpu;" parent="65" vertex="1">
                    <mxGeometry width="130" height="130" as="geometry"/>
                </mxCell>
                <mxCell id="97" value="&lt;span style=&quot;color: rgb(0, 0, 0); font-family: &amp;quot;Times New Roman&amp;quot;; font-size: 24px; font-style: normal; font-variant-ligatures: normal; font-variant-caps: normal; font-weight: 400; letter-spacing: normal; orphans: 2; text-align: center; text-indent: 0px; text-transform: none; widows: 2; word-spacing: 0px; -webkit-text-stroke-width: 0px; background-color: rgb(251, 251, 251); text-decoration-thickness: initial; text-decoration-style: initial; text-decoration-color: initial; float: none; display: inline !important;&quot;&gt;Process2&lt;/span&gt;" style="text;whiteSpace=wrap;html=1;" parent="65" vertex="1">
                    <mxGeometry x="20" y="41" width="90" height="50" as="geometry"/>
                </mxCell>
                <mxCell id="77" value="" style="endArrow=classic;html=1;strokeColor=#000000;entryX=0.5;entryY=0;entryDx=0;entryDy=0;" parent="1" source="63" target="15" edge="1">
                    <mxGeometry width="50" height="50" relative="1" as="geometry">
                        <mxPoint x="444.4774102263855" y="290.0000000000001" as="sourcePoint"/>
                        <mxPoint x="390" y="320" as="targetPoint"/>
                    </mxGeometry>
                </mxCell>
                <mxCell id="54" value="&lt;font face=&quot;Times New Roman&quot; style=&quot;font-size: 24px;&quot;&gt;IPC Table&lt;/font&gt;" style="text;html=1;align=center;verticalAlign=middle;resizable=0;points=[];autosize=1;strokeColor=none;fillColor=default;" parent="1" vertex="1">
                    <mxGeometry x="345" y="358" width="120" height="40" as="geometry"/>
                </mxCell>
                <mxCell id="79" value="" style="group" parent="1" vertex="1" connectable="0">
                    <mxGeometry x="120" y="313" width="123" height="63" as="geometry"/>
                </mxCell>
                <mxCell id="49" value="" style="rounded=1;whiteSpace=wrap;html=1;strokeWidth=2;fillColor=default;" parent="79" vertex="1">
                    <mxGeometry width="120" height="60" as="geometry"/>
                </mxCell>
                <mxCell id="50" value="&lt;font face=&quot;Times New Roman&quot; style=&quot;font-size: 24px;&quot;&gt;IPC&lt;br&gt;Dispatcher&lt;br&gt;&lt;/font&gt;" style="text;html=1;align=center;verticalAlign=middle;resizable=0;points=[];autosize=1;strokeColor=none;fillColor=none;" parent="79" vertex="1">
                    <mxGeometry x="-7" y="-7" width="130" height="70" as="geometry"/>
                </mxCell>
                <mxCell id="80" value="" style="group" parent="1" vertex="1" connectable="0">
                    <mxGeometry x="300" y="400" width="60" height="80" as="geometry"/>
                </mxCell>
                <mxCell id="81" value="" style="shape=partialRectangle;whiteSpace=wrap;html=1;bottom=0;top=0;fillColor=default;strokeWidth=2;" parent="80" vertex="1">
                    <mxGeometry width="40" height="60" as="geometry"/>
                </mxCell>
                <mxCell id="82" value="" style="shape=partialRectangle;whiteSpace=wrap;html=1;bottom=0;top=0;fillColor=default;strokeWidth=2;" parent="80" vertex="1">
                    <mxGeometry x="10" y="10" width="40" height="60" as="geometry"/>
                </mxCell>
                <mxCell id="83" value="" style="shape=partialRectangle;whiteSpace=wrap;html=1;bottom=0;top=0;fillColor=default;strokeWidth=2;" parent="80" vertex="1">
                    <mxGeometry x="20" y="20" width="40" height="60" as="geometry"/>
                </mxCell>
                <mxCell id="85" value="" style="endArrow=classic;html=1;strokeWidth=2;" parent="80" edge="1">
                    <mxGeometry width="50" height="50" relative="1" as="geometry">
                        <mxPoint x="19" y="-120" as="sourcePoint"/>
                        <mxPoint x="19" as="targetPoint"/>
                    </mxGeometry>
                </mxCell>
                <mxCell id="86" value="" style="group" parent="1" vertex="1" connectable="0">
                    <mxGeometry x="459" y="400" width="60" height="80" as="geometry"/>
                </mxCell>
                <mxCell id="87" value="" style="shape=partialRectangle;whiteSpace=wrap;html=1;bottom=0;top=0;fillColor=default;strokeWidth=2;" parent="86" vertex="1">
                    <mxGeometry width="40" height="60" as="geometry"/>
                </mxCell>
                <mxCell id="88" value="" style="shape=partialRectangle;whiteSpace=wrap;html=1;bottom=0;top=0;fillColor=default;strokeWidth=2;" parent="86" vertex="1">
                    <mxGeometry x="10" y="10" width="40" height="60" as="geometry"/>
                </mxCell>
                <mxCell id="89" value="" style="shape=partialRectangle;whiteSpace=wrap;html=1;bottom=0;top=0;fillColor=default;strokeWidth=2;" parent="86" vertex="1">
                    <mxGeometry x="20" y="20" width="40" height="60" as="geometry"/>
                </mxCell>
                <mxCell id="90" value="" style="endArrow=classic;html=1;strokeWidth=2;" parent="86" edge="1">
                    <mxGeometry width="50" height="50" relative="1" as="geometry">
                        <mxPoint x="30" as="sourcePoint"/>
                        <mxPoint x="30" y="-120" as="targetPoint"/>
                    </mxGeometry>
                </mxCell>
                <mxCell id="91" value="" style="endArrow=classic;html=1;strokeWidth=2;" parent="86" source="66" edge="1">
                    <mxGeometry width="50" height="50" relative="1" as="geometry">
                        <mxPoint x="19.99899999999994" y="-29.428999999999974" as="sourcePoint"/>
                        <mxPoint x="20" as="targetPoint"/>
                    </mxGeometry>
                </mxCell>
                <mxCell id="84" value="" style="endArrow=classic;html=1;strokeWidth=2;exitX=0.641;exitY=-0.002;exitDx=0;exitDy=0;exitPerimeter=0;" parent="1" edge="1">
                    <mxGeometry width="50" height="50" relative="1" as="geometry">
                        <mxPoint x="328.6400000000001" y="399.88" as="sourcePoint"/>
                        <mxPoint x="328.22501081782787" y="280" as="targetPoint"/>
                    </mxGeometry>
                </mxCell>
                <mxCell id="92" value="" style="curved=1;endArrow=classic;html=1;strokeWidth=2;" parent="1" edge="1">
                    <mxGeometry width="50" height="50" relative="1" as="geometry">
                        <mxPoint x="250" y="570" as="sourcePoint"/>
                        <mxPoint x="340" y="480" as="targetPoint"/>
                        <Array as="points">
                            <mxPoint x="300" y="570"/>
                            <mxPoint x="330" y="530"/>
                        </Array>
                    </mxGeometry>
                </mxCell>
                <mxCell id="93" value="" style="curved=1;endArrow=classic;html=1;strokeWidth=2;" parent="1" source="60" edge="1">
                    <mxGeometry width="50" height="50" relative="1" as="geometry">
                        <mxPoint x="260" y="580" as="sourcePoint"/>
                        <mxPoint x="500" y="480" as="targetPoint"/>
                        <Array as="points">
                            <mxPoint x="310" y="580"/>
                            <mxPoint x="460" y="550"/>
                        </Array>
                    </mxGeometry>
                </mxCell>
                <mxCell id="94" value="" style="endArrow=classic;html=1;strokeWidth=2;exitX=0.417;exitY=1.008;exitDx=0;exitDy=0;exitPerimeter=0;" parent="1" edge="1">
                    <mxGeometry width="50" height="50" relative="1" as="geometry">
                        <mxPoint x="180.03999999999996" y="480.48" as="sourcePoint"/>
                        <mxPoint x="180" y="507" as="targetPoint"/>
                    </mxGeometry>
                </mxCell>
                <mxCell id="95" value="" style="endArrow=classic;html=1;strokeWidth=2;entryX=0.499;entryY=1.017;entryDx=0;entryDy=0;entryPerimeter=0;" parent="1" edge="1">
                    <mxGeometry width="50" height="50" relative="1" as="geometry">
                        <mxPoint x="190" y="506" as="sourcePoint"/>
                        <mxPoint x="189.8800000000001" y="480.02" as="targetPoint"/>
                    </mxGeometry>
                </mxCell>
            </root>
        </mxGraphModel>
    </diagram>
</mxfile>